<svg width="17" height="18" viewBox="0 0 17 18" fill="none" xmlns="http://www.w3.org/2000/svg">
<path d="M8.49787 6.51837C6.93707 6.51837 5.66333 7.7921 5.66333 9.35291C5.66333 10.9137 6.93707 12.1874 8.49787 12.1874C10.0587 12.1874 11.3324 10.9137 11.3324 9.35291C11.3324 7.7921 10.0587 6.51837 8.49787 6.51837ZM16.9994 9.35291C16.9994 8.17911 17.01 7.01595 16.9441 5.84428C16.8782 4.48337 16.5677 3.27555 15.5725 2.28038C14.5752 1.28308 13.3695 0.974745 12.0086 0.908825C10.8348 0.842906 9.67167 0.853538 8.5 0.853538C7.32621 0.853538 6.16305 0.842906 4.99138 0.908825C3.63046 0.974745 2.42264 1.2852 1.42747 2.28038C0.430173 3.27768 0.121839 4.48337 0.0559198 5.84428C-0.00999972 7.01808 0.000632496 8.18124 0.000632496 9.35291C0.000632496 10.5246 -0.00999972 11.6899 0.0559198 12.8615C0.121839 14.2224 0.432299 15.4303 1.42747 16.4254C2.42477 17.4227 3.63046 17.7311 4.99138 17.797C6.16517 17.8629 7.32833 17.8523 8.5 17.8523C9.67379 17.8523 10.837 17.8629 12.0086 17.797C13.3695 17.7311 14.5774 17.4206 15.5725 16.4254C16.5698 15.4281 16.8782 14.2224 16.9441 12.8615C17.0121 11.6899 16.9994 10.5267 16.9994 9.35291ZM8.49787 13.7142C6.08437 13.7142 4.13655 11.7664 4.13655 9.35291C4.13655 6.9394 6.08437 4.99158 8.49787 4.99158C10.9114 4.99158 12.8592 6.9394 12.8592 9.35291C12.8592 11.7664 10.9114 13.7142 8.49787 13.7142ZM13.0378 5.83153C12.4743 5.83153 12.0193 5.37647 12.0193 4.81296C12.0193 4.24946 12.4743 3.7944 13.0378 3.7944C13.6013 3.7944 14.0564 4.24946 14.0564 4.81296C14.0565 4.94677 14.0303 5.0793 13.9792 5.20295C13.9281 5.3266 13.853 5.43895 13.7584 5.53357C13.6638 5.62819 13.5515 5.70321 13.4278 5.75433C13.3041 5.80546 13.1716 5.83169 13.0378 5.83153Z" fill="white"/>
</svg>
