<svg width="20" height="14" viewBox="0 0 20 14" fill="none" xmlns="http://www.w3.org/2000/svg">
<path d="M19.5829 2.4224C19.4696 2.01843 19.249 1.65269 18.9445 1.36407C18.6314 1.06657 18.2477 0.853764 17.8295 0.745734C16.2645 0.333234 9.99454 0.333234 9.99454 0.333234C7.38065 0.303495 4.7674 0.434296 2.16954 0.7249C1.75136 0.840911 1.36834 1.05847 1.05454 1.35823C0.746204 1.6549 0.522871 2.02073 0.406204 2.42157C0.125949 3.93135 -0.0102189 5.46435 -0.000462243 6.9999C-0.0104622 8.53407 0.125371 10.0666 0.406204 11.5782C0.520371 11.9774 0.742871 12.3416 1.05204 12.6357C1.3612 12.9299 1.7462 13.1424 2.16954 13.2549C3.75537 13.6666 9.99454 13.6666 9.99454 13.6666C12.6118 13.6963 15.2283 13.5655 17.8295 13.2749C18.2477 13.1669 18.6314 12.9541 18.9445 12.6566C19.2489 12.368 19.4693 12.0022 19.582 11.5982C19.8696 10.089 20.0094 8.55539 19.9995 7.01907C20.0212 5.47624 19.8815 3.93537 19.5829 2.42157V2.4224ZM8.0012 9.85323V4.1474L13.2179 7.00073L8.0012 9.85323Z" fill="white"/>
</svg>
