<svg width="16" height="17" viewBox="0 0 16 17" fill="none" xmlns="http://www.w3.org/2000/svg">
<path fill-rule="evenodd" clip-rule="evenodd" d="M8.52151 2.46603C8.52151 2.17148 8.28272 1.9327 7.98817 1.9327C7.69362 1.9327 7.45484 2.17148 7.45484 2.46603L7.45484 7.96668L1.95425 7.96668C1.6597 7.96668 1.42092 8.20546 1.42092 8.50001C1.42092 8.79456 1.6597 9.03335 1.95425 9.03335L7.45484 9.03335L7.45484 14.534C7.45484 14.8285 7.69362 15.0673 7.98817 15.0673C8.28273 15.0673 8.52151 14.8285 8.52151 14.534L8.52151 9.03335L14.0222 9.03335C14.3168 9.03335 14.5555 8.79457 14.5555 8.50002C14.5555 8.20546 14.3167 7.96668 14.0222 7.96668L8.52151 7.96668L8.52151 2.46603Z" fill="#6D6AFE"/>
</svg>
