<svg width="42" height="42" viewBox="0 0 42 42" fill="none" xmlns="http://www.w3.org/2000/svg">
<g clip-path="url(#clip0_11_8)">
<path fill-rule="evenodd" clip-rule="evenodd" d="M21.5815 13.6979C22.4302 12.835 23.5669 12.3576 24.7468 12.3684C25.9267 12.3792 27.0554 12.8774 27.8897 13.7556C28.7241 14.6339 29.1973 15.8219 29.2075 17.0639C29.2178 18.3059 28.7642 19.5024 27.9445 20.3958L27.9354 20.4056L25.6855 22.7739C25.2293 23.2543 24.6803 23.6258 24.0757 23.8631C23.4711 24.1005 22.8251 24.1983 22.1814 24.1498C21.5378 24.1013 20.9116 23.9077 20.3454 23.582C19.7791 23.2562 19.286 22.8062 18.8995 22.2624C18.6514 21.9132 18.7191 21.4184 19.0508 21.1573C19.3825 20.8961 19.8525 20.9674 20.1006 21.3166C20.3583 21.6792 20.687 21.9792 21.0645 22.1963C21.4421 22.4135 21.8595 22.5425 22.2886 22.5749C22.7176 22.6072 23.1484 22.542 23.5514 22.3838C23.9545 22.2255 24.3205 21.9779 24.6247 21.6577L26.8699 19.2942C27.4137 18.6991 27.7144 17.9034 27.7076 17.0776C27.7008 16.2496 27.3852 15.4576 26.829 14.8721C26.2728 14.2866 25.5203 13.9545 24.7337 13.9473C23.9489 13.9401 23.1927 14.257 22.6273 14.8299L21.3414 16.1756C21.0476 16.483 20.5727 16.4816 20.2807 16.1724C19.9886 15.8632 19.99 15.3633 20.2838 15.0559L21.5737 13.7059L21.5815 13.6979Z" fill="#6D6AFE"/>
<path fill-rule="evenodd" clip-rule="evenodd" d="M17.9244 18.1365C18.529 17.8991 19.175 17.8014 19.8186 17.8499C20.4622 17.8984 21.0884 18.0921 21.6547 18.4177C22.221 18.7434 22.7141 19.1935 23.1006 19.7374C23.3487 20.0865 23.281 20.5813 22.9492 20.8424C22.6176 21.1035 22.1475 21.0323 21.8995 20.6831C21.6418 20.3205 21.313 20.0205 20.9355 19.8034C20.558 19.5863 20.1406 19.4572 19.7115 19.4248C19.2824 19.3925 18.8517 19.4576 18.4487 19.6159C18.0456 19.7741 17.6796 20.0218 17.3755 20.3421L15.1302 22.7055C14.5864 23.3006 14.2857 24.0963 14.2925 24.9221C14.2993 25.7501 14.6148 26.5421 15.171 27.1276C15.7273 27.7131 16.4797 28.0452 17.2663 28.0524C18.0508 28.0596 18.8067 27.743 19.3721 27.1706L20.6497 25.8257C20.9426 25.5173 21.4174 25.5173 21.7104 25.8257C22.0033 26.134 22.0033 26.6339 21.7104 26.9422L20.4279 28.2922L20.4186 28.3017C19.5699 29.1646 18.4331 29.6421 17.2533 29.6313C16.0734 29.6205 14.9447 29.1224 14.1104 28.244C13.276 27.3658 12.8028 26.1777 12.7925 24.9357C12.7823 23.6938 13.2359 22.4973 14.0556 21.6038L14.0647 21.5941L16.3146 19.2258C16.3146 19.2257 16.3146 19.2258 16.3146 19.2258C16.7708 18.7454 17.3199 18.3739 17.9244 18.1365Z" fill="#6D6AFE"/>
</g>
<circle cx="21" cy="21" r="21" fill="#9D9D9D" fill-opacity="0.04"/>
<defs>
<clipPath id="clip0_11_8">
<rect width="18" height="18" fill="white" transform="translate(12 12)"/>
</clipPath>
</defs>
</svg>
