<svg
  width="212"
  height="38"
  viewBox="0 0 212 38"
  fill="none"
  xmlns="http://www.w3.org/2000/svg"
>
  <path
    d="M8.95088 24.866V1.25437H0.708313V32.0971H24.4011V24.866H8.95088Z"
    fill="#6D6AFE"
  />
  <path
    d="M35.0352 32.0971V8.1165H26.7926V32.0971H35.0352ZM35.0352 6.27184V0H26.7926V6.27184H35.0352Z"
    fill="#6D6AFE"
  />
  <path
    d="M53.2296 7.37864C49.9769 7.37864 47.4265 8.59612 45.6893 10.6252V8.1165H37.4467V32.0971H45.6893V21.3612C45.7632 16.7495 47.7961 14.7942 51.1227 14.7942C53.9688 14.7942 55.0777 16.233 55.0777 19.6641V32.0971H63.3202V18.2252C63.3202 10.9573 60.585 7.37864 53.2296 7.37864Z"
    fill="#6D6AFE"
  />
  <path
    d="M73.6058 15.9748V0H65.3633V32.0971H73.6058V26.4524L77.0433 22.4311L81.0352 32.0971H90.1279L84.9163 19.3689H79.6676L89.3887 8.1165H80.4069L73.6058 15.9748Z"
    fill="#6D6AFE"
  />
  <path
    d="M106.926 32.835C111.916 32.835 118.052 29.9942 118.052 20.1068C118.052 10.2194 111.916 7.37864 106.926 7.37864C104.154 7.37864 101.677 8.19029 99.6815 9.55534V0H91.4389V32.0971H99.6815V30.6583C101.677 32.0602 104.154 32.835 106.926 32.835ZM104.745 25.6408C101.899 25.6408 99.6815 24.2019 99.6815 20.1068V19.8117C99.7924 15.9748 101.973 14.5728 104.745 14.5728C107.924 14.5728 109.809 16.233 109.809 20.1068C109.809 24.0175 107.924 25.6408 104.745 25.6408Z"
    fill="#6D6AFE"
  />
  <path
    d="M119.356 32.0971H127.598V22.099C127.672 17.4505 129.779 14.7573 137.134 14.7573V7.37864C132.699 7.37864 129.557 8.92815 127.598 11.2524V8.1165H119.356V32.0971Z"
    fill="#6D6AFE"
  />
  <path
    d="M148.815 32.835C151.55 32.835 154.064 32.0602 156.06 30.6583V32.0971H164.302V8.1165H156.06V9.55534C154.064 8.19029 151.55 7.37864 148.815 7.37864C143.825 7.37864 137.689 10.2194 137.689 20.1068C137.689 29.9942 143.825 32.835 148.815 32.835ZM150.996 25.6408C147.817 25.6408 145.932 24.0175 145.932 20.1068C145.932 16.233 147.817 14.5728 150.996 14.5728C153.842 14.5728 156.06 16.0485 156.06 20.1068C156.06 24.2019 153.842 25.6408 150.996 25.6408Z"
    fill="#6D6AFE"
  />
  <path
    d="M166.345 32.0971H174.588V22.099C174.662 17.4505 176.768 14.7573 184.124 14.7573V7.37864C179.688 7.37864 176.547 8.92815 174.588 11.2524V8.1165H166.345V32.0971Z"
    fill="#6D6AFE"
  />
  <path
    d="M203.049 8.1165V18.5573C202.162 19.5534 200.573 19.9592 198.725 19.9592C194.807 19.9592 193.661 18.7417 193.661 16.4913V8.1165H185.418V17.0816C185.418 23.6485 190.075 27.1903 196.544 27.1903C198.946 27.1903 201.164 26.6738 203.049 25.7883V26.6738C203.049 29.9573 201.792 31.1379 198.54 31.1379C195.842 31.1379 194.548 30.3262 194.178 28.4447H185.899C186.564 35.233 190.223 38 198.54 38C207.596 38 211.292 34.6796 211.292 26.0466V8.1165H203.049Z"
    fill="#6D6AFE"
  />
</svg>