<svg width="18" height="19" viewBox="0 0 18 19" fill="none" xmlns="http://www.w3.org/2000/svg">
<g clip-path="url(#clip0_5257_1689)">
<path fill-rule="evenodd" clip-rule="evenodd" d="M7.3951 11.045C7.1315 10.7813 7.1315 10.354 7.3951 10.0904L13.8296 3.52012H10.368C9.99525 3.52012 9.69304 3.21792 9.69304 2.84512C9.69304 2.47233 9.99525 2.17012 10.368 2.17012H15.4592C15.832 2.17012 16.1342 2.47233 16.1342 2.84512L16.1342 7.93629C16.1342 8.30909 15.832 8.61129 15.4592 8.61129C15.0864 8.61129 14.7842 8.30908 14.7842 7.93629L14.7842 4.47472L8.3497 11.045C8.0861 11.3086 7.65871 11.3086 7.3951 11.045Z" fill="#9FA6B2"/>
<path fill-rule="evenodd" clip-rule="evenodd" d="M4.4999 4.77505C3.87858 4.77505 3.3749 5.27873 3.3749 5.90005V14C3.3749 14.6214 3.87858 15.125 4.4999 15.125H12.5999C13.2212 15.125 13.7249 14.6214 13.7249 14V10.85C13.7249 10.4773 14.0271 10.175 14.3999 10.175C14.7727 10.175 15.0749 10.4773 15.0749 10.85V14C15.0749 15.367 13.9668 16.475 12.5999 16.475H4.4999C3.133 16.475 2.0249 15.367 2.0249 14V5.90005C2.0249 4.53314 3.133 3.42505 4.4999 3.42505H7.6499C8.02269 3.42505 8.3249 3.72726 8.3249 4.10005C8.3249 4.47284 8.02269 4.77505 7.6499 4.77505H4.4999Z" fill="#9FA6B2"/>
</g>
<defs>
<clipPath id="clip0_5257_1689">
<rect width="18" height="18" fill="white" transform="translate(0 0.5)"/>
</clipPath>
</defs>
</svg>
