<svg width="16" height="17" viewBox="0 0 16 17" fill="none" xmlns="http://www.w3.org/2000/svg">
<path fill-rule="evenodd" clip-rule="evenodd" d="M8.52157 2.46603C8.52157 2.17148 8.28278 1.9327 7.98823 1.9327C7.69368 1.9327 7.4549 2.17148 7.4549 2.46603L7.4549 7.96668L1.95431 7.96668C1.65976 7.96668 1.42098 8.20546 1.42098 8.50001C1.42098 8.79456 1.65976 9.03335 1.95431 9.03335L7.4549 9.03335L7.4549 14.534C7.4549 14.8285 7.69368 15.0673 7.98824 15.0673C8.28279 15.0673 8.52157 14.8285 8.52157 14.534L8.52157 9.03335L14.0223 9.03335C14.3168 9.03335 14.5556 8.79457 14.5556 8.50002C14.5556 8.20546 14.3168 7.96668 14.0223 7.96668L8.52157 7.96668L8.52157 2.46603Z" fill="#E7EFFB"/>
</svg>
