<svg width="18" height="19" viewBox="0 0 18 19" fill="none" xmlns="http://www.w3.org/2000/svg">
<path d="M3.6 5.1H14.4V15.5C14.4 16.2732 13.7732 16.9 13 16.9H5C4.2268 16.9 3.6 16.2732 3.6 15.5V5.1Z" stroke="#9FA6B2" stroke-width="1.2"/>
<path d="M6.48387 3.07385C6.72102 2.59955 7.20579 2.29995 7.73607 2.29995H10.2639C10.7942 2.29995 11.279 2.59955 11.5161 3.07385L12.5292 5.09995H5.47082L6.48387 3.07385Z" stroke="#9FA6B2" stroke-width="1.2"/>
<rect x="1.5" y="4.5" width="15" height="1.2" rx="0.6" fill="#9FA6B2"/>
<rect x="9.59985" y="7.5" width="7" height="1.2" rx="0.6" transform="rotate(90 9.59985 7.5)" fill="#9FA6B2"/>
<rect x="12.2" y="7.5" width="7" height="1.2" rx="0.6" transform="rotate(90 12.2 7.5)" fill="#9FA6B2"/>
<rect x="7.19995" y="7.5" width="7" height="1.2" rx="0.6" transform="rotate(90 7.19995 7.5)" fill="#9FA6B2"/>
</svg>
