<svg width="19" height="19" viewBox="0 0 19 19" fill="none" xmlns="http://www.w3.org/2000/svg">
<path d="M4.1 5.1H14.9V15.5C14.9 16.2732 14.2732 16.9 13.5 16.9H5.5C4.7268 16.9 4.1 16.2732 4.1 15.5V5.1Z" stroke="#9FA6B2" stroke-width="1.2"/>
<path d="M6.98387 3.07385C7.22102 2.59955 7.70579 2.29995 8.23607 2.29995H10.7639C11.2942 2.29995 11.779 2.59955 12.0161 3.07385L13.0292 5.09995H5.97082L6.98387 3.07385Z" stroke="#9FA6B2" stroke-width="1.2"/>
<rect x="2" y="4.5" width="15" height="1.2" rx="0.6" fill="#9FA6B2"/>
<rect x="10.1001" y="7.5" width="7" height="1.2" rx="0.6" transform="rotate(90 10.1001 7.5)" fill="#9FA6B2"/>
<rect x="12.6997" y="7.5" width="7" height="1.2" rx="0.6" transform="rotate(90 12.6997 7.5)" fill="#9FA6B2"/>
<rect x="7.7002" y="7.5" width="7" height="1.2" rx="0.6" transform="rotate(90 7.7002 7.5)" fill="#9FA6B2"/>
</svg>
