<svg width="16" height="17" viewBox="0 0 16 17" fill="none" xmlns="http://www.w3.org/2000/svg">
<path d="M15.5112 6.6004C14.9096 5.61525 14.1507 4.73526 13.2647 3.99536L15.1307 2.12939C15.2521 2.0037 15.3193 1.83536 15.3177 1.66063C15.3162 1.4859 15.2461 1.31875 15.1226 1.19519C14.999 1.07163 14.8319 1.00154 14.6571 1.00003C14.4824 0.998507 14.3141 1.06568 14.1884 1.18707L12.1591 3.21899C10.9012 2.47181 9.46307 2.08238 8 2.09274C3.8742 2.09274 1.52307 4.91702 0.488783 6.6004C0.169253 7.11721 0 7.71281 0 8.32043C0 8.92804 0.169253 9.52365 0.488783 10.0405C1.0904 11.0256 1.84927 11.9056 2.73528 12.6455L0.869308 14.5115C0.805659 14.5729 0.754889 14.6465 0.719963 14.7278C0.685037 14.8091 0.666653 14.8965 0.665884 14.985C0.665115 15.0735 0.681976 15.1613 0.715484 15.2432C0.748993 15.3251 0.798476 15.3995 0.861048 15.462C0.92362 15.5246 0.998027 15.5741 1.07993 15.6076C1.16183 15.6411 1.24958 15.658 1.33807 15.6572C1.42656 15.6564 1.514 15.6381 1.59531 15.6031C1.67661 15.5682 1.75015 15.5174 1.81163 15.4538L3.84554 13.4199C5.10192 14.1669 6.53832 14.557 8 14.5481C12.1258 14.5481 14.4769 11.7238 15.5112 10.0405C15.8307 9.52365 16 8.92804 16 8.32043C16 7.71281 15.8307 7.11721 15.5112 6.6004ZM1.62436 9.34272C1.43452 9.03553 1.33397 8.68154 1.33397 8.32043C1.33397 7.95931 1.43452 7.60533 1.62436 7.29814C2.51337 5.85468 4.52262 3.42558 8 3.42558C9.10644 3.41938 10.1973 3.68604 11.1762 4.20196L9.83465 5.54346C9.19485 5.11868 8.42778 4.92835 7.66361 5.00476C6.89945 5.08116 6.18525 5.4196 5.64221 5.96264C5.09917 6.50568 4.76073 7.21988 4.68433 7.98404C4.60792 8.74821 4.79825 9.51527 5.22303 10.1551L3.6836 11.6945C2.8673 11.0346 2.17072 10.239 1.62436 9.34272ZM9.99926 8.32043C9.99926 8.85067 9.78862 9.35918 9.41369 9.73412C9.03876 10.1091 8.53024 10.3197 8 10.3197C7.70312 10.3185 7.41035 10.2502 7.14365 10.1198L9.79933 7.46408C9.92976 7.73078 9.99811 8.02355 9.99926 8.32043ZM6.00074 8.32043C6.00074 7.79019 6.21138 7.28167 6.58631 6.90674C6.96124 6.5318 7.46976 6.32117 8 6.32117C8.29688 6.32232 8.58965 6.39067 8.85635 6.5211L6.20067 9.17678C6.07024 8.91008 6.00189 8.61731 6.00074 8.32043ZM14.3756 9.34272C13.4866 10.7862 11.4774 13.2153 8 13.2153C6.89356 13.2215 5.80266 12.9548 4.82384 12.4389L6.16535 11.0974C6.80515 11.5222 7.57222 11.7125 8.33639 11.6361C9.10055 11.5597 9.81475 11.2213 10.3578 10.6782C10.9008 10.1352 11.2393 9.42098 11.3157 8.65682C11.3921 7.89265 11.2017 7.12558 10.777 6.48577L12.3164 4.94635C13.1327 5.60629 13.8293 6.40184 14.3756 7.29814C14.5655 7.60533 14.666 7.95931 14.666 8.32043C14.666 8.68154 14.5655 9.03553 14.3756 9.34272Z" fill="#4B5563"/>
</svg>
