<svg width="20" height="20" viewBox="0 0 20 20" fill="none" xmlns="http://www.w3.org/2000/svg">
<path d="M9.49787 7.51837C7.93707 7.51837 6.66333 8.7921 6.66333 10.3529C6.66333 11.9137 7.93707 13.1874 9.49787 13.1874C11.0587 13.1874 12.3324 11.9137 12.3324 10.3529C12.3324 8.7921 11.0587 7.51837 9.49787 7.51837ZM17.9994 10.3529C17.9994 9.17911 18.01 8.01595 17.9441 6.84428C17.8782 5.48337 17.5677 4.27555 16.5725 3.28038C15.5752 2.28308 14.3695 1.97474 13.0086 1.90883C11.8348 1.84291 10.6717 1.85354 9.5 1.85354C8.32621 1.85354 7.16305 1.84291 5.99138 1.90883C4.63046 1.97474 3.42264 2.2852 2.42747 3.28038C1.43017 4.27768 1.12184 5.48337 1.05592 6.84428C0.99 8.01808 1.00063 9.18124 1.00063 10.3529C1.00063 11.5246 0.99 12.6899 1.05592 13.8615C1.12184 15.2224 1.4323 16.4303 2.42747 17.4254C3.42477 18.4227 4.63046 18.7311 5.99138 18.797C7.16517 18.8629 8.32833 18.8523 9.5 18.8523C10.6738 18.8523 11.837 18.8629 13.0086 18.797C14.3695 18.7311 15.5774 18.4206 16.5725 17.4254C17.5698 16.4281 17.8782 15.2224 17.9441 13.8615C18.0121 12.6899 17.9994 11.5267 17.9994 10.3529ZM9.49787 14.7142C7.08437 14.7142 5.13655 12.7664 5.13655 10.3529C5.13655 7.9394 7.08437 5.99158 9.49787 5.99158C11.9114 5.99158 13.8592 7.9394 13.8592 10.3529C13.8592 12.7664 11.9114 14.7142 9.49787 14.7142ZM14.0378 6.83153C13.4743 6.83153 13.0193 6.37647 13.0193 5.81296C13.0193 5.24946 13.4743 4.7944 14.0378 4.7944C14.6013 4.7944 15.0564 5.24946 15.0564 5.81296C15.0565 5.94677 15.0303 6.0793 14.9792 6.20295C14.9281 6.3266 14.853 6.43895 14.7584 6.53357C14.6638 6.62819 14.5515 6.70321 14.4278 6.75433C14.3041 6.80546 14.1716 6.83169 14.0378 6.83153Z" fill="white"/>
</svg>
