<svg width="133" height="25" viewBox="0 0 133 25" fill="none" xmlns="http://www.w3.org/2000/svg">
<path d="M5.20583 16.2049V1.29223H0V20.7718H14.9638V16.2049H5.20583Z" fill="#6D6AFE"/>
<path d="M21.6801 20.7718V5.62621H16.4743V20.7718H21.6801ZM21.6801 4.46117V0.5H16.4743V4.46117H21.6801Z" fill="#6D6AFE"/>
<path d="M33.1713 5.16019C31.117 5.16019 29.5062 5.92913 28.409 7.21068V5.62621H23.2032V20.7718H28.409V13.9913C28.4557 11.0786 29.7397 9.84369 31.8407 9.84369C33.6382 9.84369 34.3385 10.7524 34.3385 12.9194V20.7718H39.5444V12.0107C39.5444 7.42039 37.8169 5.16019 33.1713 5.16019Z" fill="#6D6AFE"/>
<path d="M46.0405 10.5893V0.5H40.8347V20.7718H46.0405V17.2068L48.2116 14.667L50.7328 20.7718H56.4755L53.184 12.733H49.869L56.0087 5.62621H50.3359L46.0405 10.5893Z" fill="#6D6AFE"/>
<path d="M67.0849 21.2379C70.2364 21.2379 74.1116 19.4437 74.1116 13.199C74.1116 6.95437 70.2364 5.16019 67.0849 5.16019C65.3341 5.16019 63.77 5.67281 62.5094 6.53495V0.5H57.3035V20.7718H62.5094V19.8631C63.77 20.7485 65.3341 21.2379 67.0849 21.2379ZM65.7076 16.6942C63.91 16.6942 62.5094 15.7854 62.5094 13.199V13.0126C62.5794 10.5893 63.9567 9.70388 65.7076 9.70388C67.7152 9.70388 68.9058 10.7524 68.9058 13.199C68.9058 15.6689 67.7152 16.6942 65.7076 16.6942Z" fill="#6D6AFE"/>
<path d="M74.935 20.7718H80.1409V14.4573C80.1876 11.5214 81.5182 9.82039 86.1638 9.82039V5.16019C83.3624 5.16019 81.3781 6.13883 80.1409 7.6068V5.62621H74.935V20.7718Z" fill="#6D6AFE"/>
<path d="M93.541 21.2379C95.2685 21.2379 96.8559 20.7485 98.1165 19.8631V20.7718H103.322V5.62621H98.1165V6.53495C96.8559 5.67281 95.2685 5.16019 93.541 5.16019C90.3895 5.16019 86.5143 6.95437 86.5143 13.199C86.5143 19.4437 90.3895 21.2379 93.541 21.2379ZM94.9183 16.6942C92.9107 16.6942 91.7201 15.6689 91.7201 13.199C91.7201 10.7524 92.9107 9.70388 94.9183 9.70388C96.7159 9.70388 98.1165 10.6359 98.1165 13.199C98.1165 15.7854 96.7159 16.6942 94.9183 16.6942Z" fill="#6D6AFE"/>
<path d="M104.613 20.7718H109.819V14.4573C109.865 11.5214 111.196 9.82039 115.841 9.82039V5.16019C113.04 5.16019 111.056 6.13883 109.819 7.6068V5.62621H104.613V20.7718Z" fill="#6D6AFE"/>
<path d="M127.794 5.62621V12.2204C127.234 12.8495 126.23 13.1058 125.063 13.1058C122.588 13.1058 121.865 12.3369 121.865 10.9155V5.62621H116.659V11.2883C116.659 15.4359 119.6 17.6728 123.686 17.6728C125.203 17.6728 126.604 17.3466 127.794 16.7874V17.3466C127.794 19.4204 127 20.166 124.946 20.166C123.242 20.166 122.425 19.6534 122.191 18.465H116.962C117.383 22.7524 119.694 24.5 124.946 24.5C130.666 24.5 133 22.4029 133 16.9505V5.62621H127.794Z" fill="#6D6AFE"/>
</svg>
