<svg width="18" height="18" viewBox="0 0 18 18" fill="none" xmlns="http://www.w3.org/2000/svg">
<g clip-path="url(#clip0_3167_3500)">
<path fill-rule="evenodd" clip-rule="evenodd" d="M7.39498 10.545C7.13138 10.2813 7.13138 9.85396 7.39498 9.59036L13.8295 3.02012H10.3679C9.99513 3.02012 9.69292 2.71792 9.69292 2.34512C9.69292 1.97233 9.99513 1.67012 10.3679 1.67012H15.4591C15.8319 1.67012 16.1341 1.97233 16.1341 2.34512L16.1341 7.43629C16.1341 7.80909 15.8319 8.11129 15.4591 8.11129C15.0863 8.11129 14.7841 7.80908 14.7841 7.43629L14.7841 3.97472L8.34958 10.545C8.08597 10.8086 7.65859 10.8086 7.39498 10.545Z" fill="#9FA6B2"/>
<path fill-rule="evenodd" clip-rule="evenodd" d="M4.50002 4.27505C3.8787 4.27505 3.37502 4.77873 3.37502 5.40005V13.5C3.37502 14.1214 3.8787 14.625 4.50002 14.625H12.6C13.2213 14.625 13.725 14.1214 13.725 13.5V10.35C13.725 9.97726 14.0272 9.67505 14.4 9.67505C14.7728 9.67505 15.075 9.97726 15.075 10.35V13.5C15.075 14.867 13.9669 15.975 12.6 15.975H4.50002C3.13312 15.975 2.02502 14.867 2.02502 13.5V5.40005C2.02502 4.03314 3.13312 2.92505 4.50002 2.92505H7.65002C8.02282 2.92505 8.32502 3.22726 8.32502 3.60005C8.32502 3.97284 8.02282 4.27505 7.65002 4.27505H4.50002Z" fill="#9FA6B2"/>
</g>
<defs>
<clipPath id="clip0_3167_3500">
<rect width="18" height="18" fill="white"/>
</clipPath>
</defs>
</svg>
