<svg width="42" height="42" viewBox="0 0 42 42" fill="none" xmlns="http://www.w3.org/2000/svg">
<rect width="42" height="42" rx="21" fill="#9D9D9D" fill-opacity="0.04"/>
<g clip-path="url(#clip0_3167_3538)">
<path fill-rule="evenodd" clip-rule="evenodd" d="M21.5815 14.063C22.4302 13.2433 23.5669 12.7897 24.7468 12.8C25.9267 12.8102 27.0554 13.2835 27.8897 14.1178C28.724 14.9522 29.1973 16.0808 29.2075 17.2607C29.2178 18.4406 28.7642 19.5773 27.9445 20.426L27.9354 20.4353L25.6855 22.6852C25.2293 23.1416 24.6803 23.4945 24.0757 23.72C23.4711 23.9455 22.8251 24.0384 22.1815 23.9923C21.5378 23.9462 20.9116 23.7622 20.3454 23.4529C19.7791 23.1435 19.286 22.7159 18.8995 22.1992C18.6514 21.8675 18.7191 21.3975 19.0508 21.1494C19.3825 20.9013 19.8525 20.9691 20.1006 21.3007C20.3583 21.6452 20.687 21.9303 21.0645 22.1365C21.4421 22.3428 21.8595 22.4654 22.2886 22.4961C22.7177 22.5269 23.1484 22.465 23.5514 22.3146C23.9545 22.1643 24.3205 21.929 24.6246 21.6247L24.6247 21.6246L26.8699 19.3795C27.4136 18.8142 27.7144 18.0583 27.7076 17.2737C27.7008 16.4871 27.3853 15.7347 26.829 15.1785C26.2728 14.6223 25.5204 14.3068 24.7338 14.2999C23.9489 14.2931 23.1927 14.5942 22.6273 15.1384L21.3413 16.4168C21.0476 16.7089 20.5727 16.7075 20.2807 16.4138C19.9886 16.12 19.99 15.6451 20.2838 15.3531L21.5738 14.0706L21.5815 14.063Z" fill="#6D6AFE"/>
<path fill-rule="evenodd" clip-rule="evenodd" d="M17.9244 18.2799C18.529 18.0544 19.175 17.9616 19.8186 18.0077C20.4622 18.0537 21.0884 18.2377 21.6547 18.5471C22.221 18.8565 22.7141 19.284 23.1006 19.8008C23.3487 20.1324 23.2809 20.6025 22.9493 20.8506C22.6176 21.0987 22.1476 21.0309 21.8995 20.6992C21.6418 20.3547 21.313 20.0697 20.9355 19.8635C20.558 19.6572 20.1405 19.5346 19.7115 19.5038C19.2824 19.4731 18.8517 19.535 18.4486 19.6854C18.0456 19.8357 17.6796 20.071 17.3755 20.3752L15.1302 22.6205C14.5864 23.1858 14.2857 23.9417 14.2925 24.7262C14.2993 25.5128 14.6148 26.2653 15.171 26.8215C15.7273 27.3777 16.4797 27.6932 17.2663 27.7C18.0508 27.7069 18.8067 27.4061 19.3721 26.8623L20.6497 25.5847C20.9426 25.2918 21.4175 25.2918 21.7104 25.5847C22.0033 25.8775 22.0033 26.3524 21.7104 26.6453L20.4279 27.9278L20.4186 27.937C19.5699 28.7567 18.4331 29.2102 17.2533 29.2C16.0734 29.1897 14.9447 28.7165 14.1104 27.8821C13.276 27.0478 12.8028 25.9191 12.7925 24.7393C12.7823 23.5594 13.2359 22.4227 14.0556 21.574L14.0647 21.5647L16.3146 19.3148C16.3146 19.3148 16.3146 19.3147 16.3146 19.3148C16.7708 18.8584 17.3199 18.5055 17.9244 18.2799Z" fill="#6D6AFE"/>
</g>
<defs>
<clipPath id="clip0_3167_3538">
<rect width="18" height="18" fill="white" transform="translate(12 12)"/>
</clipPath>
</defs>
</svg>
