<svg width="17" height="18" viewBox="0 0 17 18" fill="none" xmlns="http://www.w3.org/2000/svg">
<path d="M8.49787 6.51849C6.93707 6.51849 5.66333 7.79222 5.66333 9.35303C5.66333 10.9138 6.93707 12.1876 8.49787 12.1876C10.0587 12.1876 11.3324 10.9138 11.3324 9.35303C11.3324 7.79222 10.0587 6.51849 8.49787 6.51849ZM16.9994 9.35303C16.9994 8.17923 17.01 7.01607 16.9441 5.84441C16.8782 4.48349 16.5677 3.27567 15.5725 2.2805C14.5752 1.2832 13.3695 0.974867 12.0086 0.908947C10.8348 0.843028 9.67167 0.85366 8.5 0.85366C7.32621 0.85366 6.16305 0.843028 4.99138 0.908947C3.63046 0.974867 2.42264 1.28533 1.42747 2.2805C0.430173 3.2778 0.121839 4.48349 0.0559198 5.84441C-0.00999972 7.0182 0.000632496 8.18136 0.000632496 9.35303C0.000632496 10.5247 -0.00999972 11.69 0.0559198 12.8616C0.121839 14.2226 0.432299 15.4304 1.42747 16.4256C2.42477 17.4229 3.63046 17.7312 4.99138 17.7971C6.16517 17.863 7.32833 17.8524 8.5 17.8524C9.67379 17.8524 10.837 17.863 12.0086 17.7971C13.3695 17.7312 14.5774 17.4207 15.5725 16.4256C16.5698 15.4283 16.8782 14.2226 16.9441 12.8616C17.0121 11.69 16.9994 10.5268 16.9994 9.35303ZM8.49787 13.7143C6.08437 13.7143 4.13655 11.7665 4.13655 9.35303C4.13655 6.93952 6.08437 4.99171 8.49787 4.99171C10.9114 4.99171 12.8592 6.93952 12.8592 9.35303C12.8592 11.7665 10.9114 13.7143 8.49787 13.7143ZM13.0378 5.83165C12.4743 5.83165 12.0193 5.37659 12.0193 4.81308C12.0193 4.24958 12.4743 3.79452 13.0378 3.79452C13.6013 3.79452 14.0564 4.24958 14.0564 4.81308C14.0565 4.94689 14.0303 5.07942 13.9792 5.20307C13.9281 5.32672 13.853 5.43908 13.7584 5.53369C13.6638 5.62831 13.5515 5.70333 13.4278 5.75446C13.3041 5.80558 13.1716 5.83182 13.0378 5.83165Z" fill="white"/>
</svg>
