<svg width="16" height="15" viewBox="0 0 16 15" fill="none" xmlns="http://www.w3.org/2000/svg">
<path d="M15.5112 5.6004C14.9096 4.61525 14.1507 3.73526 13.2647 2.99536L15.1307 1.12939C15.2521 1.0037 15.3193 0.835362 15.3177 0.660629C15.3162 0.485896 15.2461 0.318749 15.1226 0.19519C14.999 0.0716302 14.8319 0.00154358 14.6571 2.51924e-05C14.4824 -0.00149319 14.3141 0.0656782 14.1884 0.187072L12.1591 2.21899C10.9012 1.47181 9.46307 1.08238 8 1.09274C3.8742 1.09274 1.52307 3.91702 0.488783 5.6004C0.169253 6.11721 0 6.71281 0 7.32043C0 7.92804 0.169253 8.52365 0.488783 9.04046C1.0904 10.0256 1.84927 10.9056 2.73528 11.6455L0.869308 13.5115C0.805659 13.5729 0.754889 13.6465 0.719963 13.7278C0.685037 13.8091 0.666653 13.8965 0.665884 13.985C0.665115 14.0735 0.681976 14.1613 0.715484 14.2432C0.748993 14.3251 0.798476 14.3995 0.861048 14.462C0.92362 14.5246 0.998027 14.5741 1.07993 14.6076C1.16183 14.6411 1.24958 14.658 1.33807 14.6572C1.42656 14.6564 1.514 14.6381 1.59531 14.6031C1.67661 14.5682 1.75015 14.5174 1.81163 14.4538L3.84554 12.4199C5.10192 13.1669 6.53832 13.557 8 13.5481C12.1258 13.5481 14.4769 10.7238 15.5112 9.04046C15.8307 8.52365 16 7.92804 16 7.32043C16 6.71281 15.8307 6.11721 15.5112 5.6004ZM1.62436 8.34272C1.43452 8.03553 1.33397 7.68154 1.33397 7.32043C1.33397 6.95931 1.43452 6.60533 1.62436 6.29814C2.51337 4.85468 4.52262 2.42558 8 2.42558C9.10644 2.41938 10.1973 2.68604 11.1762 3.20196L9.83465 4.54346C9.19485 4.11868 8.42778 3.92835 7.66361 4.00476C6.89945 4.08116 6.18525 4.4196 5.64221 4.96264C5.09917 5.50568 4.76073 6.21988 4.68433 6.98404C4.60792 7.74821 4.79825 8.51527 5.22303 9.15508L3.6836 10.6945C2.8673 10.0346 2.17072 9.23902 1.62436 8.34272ZM9.99926 7.32043C9.99926 7.85067 9.78862 8.35918 9.41369 8.73412C9.03876 9.10905 8.53024 9.31969 8 9.31969C7.70312 9.31854 7.41035 9.25019 7.14365 9.11976L9.79933 6.46408C9.92976 6.73078 9.99811 7.02355 9.99926 7.32043ZM6.00074 7.32043C6.00074 6.79019 6.21138 6.28167 6.58631 5.90674C6.96124 5.5318 7.46976 5.32117 8 5.32117C8.29688 5.32232 8.58965 5.39067 8.85635 5.5211L6.20067 8.17678C6.07024 7.91008 6.00189 7.61731 6.00074 7.32043ZM14.3756 8.34272C13.4866 9.78618 11.4774 12.2153 8 12.2153C6.89356 12.2215 5.80266 11.9548 4.82384 11.4389L6.16535 10.0974C6.80515 10.5222 7.57222 10.7125 8.33639 10.6361C9.10055 10.5597 9.81475 10.2213 10.3578 9.67822C10.9008 9.13518 11.2393 8.42098 11.3157 7.65682C11.3921 6.89265 11.2017 6.12558 10.777 5.48577L12.3164 3.94635C13.1327 4.60629 13.8293 5.40184 14.3756 6.29814C14.5655 6.60533 14.666 6.95931 14.666 7.32043C14.666 7.68154 14.5655 8.03553 14.3756 8.34272Z" fill="#4B5563"/>
</svg>
