<svg width="60" height="60" viewBox="0 0 60 60" fill="none" xmlns="http://www.w3.org/2000/svg">
<rect width="60" height="60" rx="30" fill="#8F00FF"/>
<path fill-rule="evenodd" clip-rule="evenodd" d="M28.9148 37.1023C27.407 36.8758 25.9954 36.2553 24.8661 35.275C24.8165 35.2312 24.7668 35.1846 24.7198 35.1405L24.7197 35.1404L24.711 35.1322C24.6055 35.0361 24.5062 34.9368 24.4069 34.8344C24.3076 34.732 24.2146 34.6265 24.1215 34.5211L24.074 34.4656C23.9992 34.3785 23.9238 34.2905 23.8547 34.1984C22.803 32.8488 22.229 31.2014 22.229 29.4578C22.229 27.6646 22.834 25.9676 23.9447 24.5963C23.9555 24.5823 23.9664 24.5691 23.9772 24.556C23.9881 24.5428 23.999 24.5296 24.0098 24.5156C24.1618 24.3326 24.3201 24.1557 24.4907 23.9882C24.8382 23.6407 25.2136 23.3367 25.6107 23.0668L25.6107 23.0668C25.7255 22.9892 25.8403 22.9117 25.9582 22.8434C25.9814 22.8295 26.0054 22.8155 26.0294 22.8016L26.0295 22.8015L26.0296 22.8015C26.0536 22.7875 26.0776 22.7736 26.1009 22.7596C26.9634 22.2757 27.9189 21.9499 28.9179 21.7979C29.5849 21.6986 30.1713 21.3449 30.5715 20.802C30.9717 20.2591 31.1393 19.592 31.0369 18.925C30.9345 18.258 30.5808 17.6685 30.041 17.2683C29.5322 16.8929 28.9179 16.7285 28.2943 16.7905V16.7874L28.2385 16.7967C28.2261 16.7983 28.2136 16.799 28.2012 16.7998C28.1888 16.8006 28.1764 16.8014 28.164 16.8029C27.9406 16.837 27.7204 16.8774 27.5001 16.9208C25.0212 17.3986 22.7378 18.593 20.9167 20.4142C15.9403 25.3905 15.931 33.4848 20.8918 38.4705L20.9198 38.4984L20.9229 38.5015L20.926 38.5046C22.9395 40.515 25.5083 41.7653 28.2912 42.1252V42.1097C28.9148 42.1717 29.5322 42.0073 30.0379 41.6319C30.5808 41.2317 30.9345 40.6422 31.0338 39.9752C31.1331 39.3082 30.9686 38.6411 30.5684 38.0982C30.1682 37.5553 29.5818 37.2016 28.9148 37.1023ZM36.9688 24.587C38.9978 24.587 40.6483 22.983 40.6483 21.013C40.6483 18.984 38.9978 17.3334 36.9688 17.3334C34.9987 17.3334 33.3948 18.984 33.3948 21.013C33.3948 22.983 34.9987 24.587 36.9688 24.587ZM36.6586 32.1694C39.2119 32.1694 40.1519 33.5717 40.4901 34.7476C41.2006 37.2171 39.7672 41.5047 36.8509 43.329L36.2925 43.6795V39.302C34.4775 39.1158 33.0814 37.5894 33.0814 35.7434C33.0814 33.7734 34.6885 32.1694 36.6586 32.1694Z" fill="white"/>
</svg>
